<svg width="205" height="40" viewBox="0 0 205 40" fill="none" xmlns="http://www.w3.org/2000/svg">
<path d="M11.5599 37.752C9.31994 37.752 7.35194 37.336 5.65594 36.504C3.95994 35.64 2.63194 34.376 1.67194 32.712C0.743938 31.048 0.279938 29.016 0.279938 26.616H7.43194C7.43194 27.608 7.57594 28.456 7.86394 29.16C8.18394 29.864 8.63194 30.408 9.20794 30.792C9.78394 31.144 10.5039 31.32 11.3679 31.32C12.1999 31.32 12.8879 31.16 13.4319 30.84C13.9759 30.488 14.3759 29.992 14.6319 29.352C14.8879 28.712 15.0159 27.944 15.0159 27.048V3.576H22.2159V27.048C22.2159 30.536 21.2399 33.192 19.2879 35.016C17.3679 36.84 14.7919 37.752 11.5599 37.752Z" fill="white"/>
<path d="M28.1552 37.176V3.576H35.3552V37.176H28.1552Z" fill="white"/>
<path d="M39.0598 37.176L51.2998 3.576H59.5558L71.7958 37.176H64.1638L55.3798 11.688L46.5958 37.176H39.0598ZM44.3878 29.832L46.3078 24.264H63.9238L65.7958 29.832H44.3878Z" fill="white"/>
<path d="M75.4764 37.176V3.576H82.6764L97.4124 25.656V3.576H104.612V37.176H97.4124L82.6764 15.192V37.176H75.4764Z" fill="white"/>
<path d="M125.407 37.752C122.207 37.752 119.407 37.048 117.007 35.64C114.639 34.2 112.799 32.2 111.487 29.64C110.175 27.08 109.519 24.088 109.519 20.664C109.519 17.208 110.191 14.152 111.535 11.496C112.911 8.84 114.879 6.76 117.439 5.256C119.999 3.752 123.055 3 126.607 3C130.607 3 133.919 3.96 136.543 5.88C139.199 7.8 140.911 10.456 141.679 13.848H133.663C133.183 12.504 132.335 11.464 131.119 10.728C129.935 9.992 128.415 9.624 126.559 9.624C124.447 9.624 122.671 10.088 121.231 11.016C119.791 11.912 118.703 13.192 117.967 14.856C117.231 16.488 116.863 18.424 116.863 20.664C116.863 22.968 117.231 24.92 117.967 26.52C118.703 28.12 119.775 29.336 121.183 30.168C122.591 30.968 124.255 31.368 126.175 31.368C128.927 31.368 131.007 30.648 132.415 29.208C133.855 27.768 134.735 25.96 135.055 23.784H127.231V18.408H142.255V37.176H135.631L135.055 33.288C134.383 34.248 133.583 35.064 132.655 35.736C131.759 36.408 130.703 36.904 129.487 37.224C128.303 37.576 126.943 37.752 125.407 37.752Z" fill="white"/>
<path d="M154.598 37.176V25.656L143.126 3.576H151.286L158.918 19.704H157.574L165.158 3.576H173.222L161.798 25.656V37.176H154.598Z" fill="white"/>
<path d="M189.848 37.752C187.32 37.752 185.016 37.256 182.936 36.264C180.888 35.24 179.256 33.72 178.04 31.704C176.856 29.688 176.264 27.144 176.264 24.072V3.576H183.464V24.12C183.464 25.624 183.704 26.904 184.184 27.96C184.696 29.016 185.432 29.816 186.392 30.36C187.384 30.872 188.568 31.128 189.944 31.128C191.352 31.128 192.536 30.872 193.496 30.36C194.488 29.816 195.24 29.016 195.752 27.96C196.264 26.904 196.52 25.624 196.52 24.12V3.576H203.72V24.072C203.72 27.144 203.08 29.688 201.8 31.704C200.552 33.72 198.872 35.24 196.76 36.264C194.68 37.256 192.376 37.752 189.848 37.752Z" fill="white"/>
</svg>
