<svg width="24" height="24" viewBox="0 0 24 24" fill="none" xmlns="http://www.w3.org/2000/svg">
<rect width="24" height="24" rx="4" fill="black"/>
<path d="M17.5791 3.86035H17.5771V5.57617C19.2294 7.18413 20.2587 9.43239 20.2588 11.9209C20.2586 16.8107 16.294 20.7749 11.4043 20.7754C7.34704 20.7754 3.92782 18.0463 2.87988 14.3252L2.88281 14.3242L2.87891 14.3203L5.42773 11.6768L5.5752 11.5234H8.82617V12.1172C8.87125 13.2614 9.73796 14.2031 10.8535 14.3799C10.9495 14.1282 11.0068 13.8567 11.0068 13.5713V5.93848H11.0137L11.0107 5.93555C11.1114 5.83478 13.0144 3.89643 13.9453 3L14.0908 2.86035H17.5791V3.86035ZM17.5771 11.9209C17.5769 15.3296 14.8129 18.0933 11.4043 18.0938C8.4306 18.0937 5.94989 15.9834 5.36328 13.1836L4.01367 14.584C5.10476 17.6111 8.002 19.7754 11.4043 19.7754C15.7417 19.7749 19.2586 16.2584 19.2588 11.9209C19.2587 10.0882 18.6296 8.40286 17.5771 7.06641V11.9209ZM14.6885 11.9785C14.6882 13.8795 13.1232 15.4116 11.2324 15.4121C9.53531 15.4121 8.10466 14.1613 7.85938 12.5234H6.26855C6.57186 15.0936 8.7559 17.0937 11.4043 17.0938C14.2606 17.0933 16.5769 14.7773 16.5771 11.9209V3.86035H14.6885V11.9785ZM12.0068 6.35059V13.5713C12.0068 13.8263 11.9761 14.0743 11.9209 14.3125C12.9379 14.0152 13.6883 13.0801 13.6885 11.9785V4.6582C13.0596 5.28491 12.3826 5.97007 12.0068 6.35059Z" fill="white"/>
</svg>
