<svg width="1900" height="43" viewBox="0 0 1900 43" fill="none" xmlns="http://www.w3.org/2000/svg">
<mask id="mask0_2033_360" style="mask-type:alpha" maskUnits="userSpaceOnUse" x="0" y="0" width="1900" height="43">
<rect width="1900" height="43" fill="url(#paint0_linear_2033_360)"/>
</mask>
<g mask="url(#mask0_2033_360)">
<g opacity="0.2">
<line x1="8.5" y1="5" x2="8.5" y2="13" stroke="#111112"/>
<line x1="17.5" y1="5" x2="17.5" y2="13" stroke="#111112"/>
<line x1="26.5" y1="5" x2="26.5" y2="13" stroke="#111112"/>
<line x1="35.5" y1="5" x2="35.5" y2="13" stroke="#111112"/>
<line x1="44.5" y1="5" x2="44.5" y2="13" stroke="#111112"/>
<line x1="53.5" y1="5" x2="53.5" y2="13" stroke="#111112"/>
<line x1="62.5" y1="5" x2="62.5" y2="13" stroke="#111112"/>
<line x1="71.5" y1="5" x2="71.5" y2="13" stroke="#111112"/>
<line x1="80.5" y1="5" x2="80.5" y2="13" stroke="#111112"/>
<line x1="89.5" y1="5" x2="89.5" y2="13" stroke="#111112"/>
<line x1="98.5" y1="5" x2="98.5" y2="13" stroke="#111112"/>
<line x1="107.5" y1="5" x2="107.5" y2="13" stroke="#111112"/>
<line x1="116.5" y1="5" x2="116.5" y2="13" stroke="#111112"/>
<line x1="125.5" y1="5" x2="125.5" y2="13" stroke="#111112"/>
<line x1="134.5" y1="5" x2="134.5" y2="13" stroke="#111112"/>
<line x1="143.5" y1="5" x2="143.5" y2="13" stroke="#111112"/>
<line x1="152.5" y1="5" x2="152.5" y2="21" stroke="#111112"/>
<line x1="161.5" y1="5" x2="161.5" y2="13" stroke="#111112"/>
<line x1="170.5" y1="5" x2="170.5" y2="13" stroke="#111112"/>
<line x1="179.5" y1="5" x2="179.5" y2="13" stroke="#111112"/>
<line x1="188.5" y1="5" x2="188.5" y2="13" stroke="#111112"/>
<line x1="197.5" y1="5" x2="197.5" y2="13" stroke="#111112"/>
<line x1="206.5" y1="5" x2="206.5" y2="13" stroke="#111112"/>
<line x1="215.5" y1="5" x2="215.5" y2="13" stroke="#111112"/>
<line x1="224.5" y1="5" x2="224.5" y2="13" stroke="#111112"/>
<line x1="233.5" y1="5" x2="233.5" y2="13" stroke="#111112"/>
<line x1="242.5" y1="5" x2="242.5" y2="13" stroke="#111112"/>
<line x1="251.5" y1="5" x2="251.5" y2="13" stroke="#111112"/>
<line x1="260.5" y1="5" x2="260.5" y2="13" stroke="#111112"/>
<line x1="269.5" y1="5" x2="269.5" y2="13" stroke="#111112"/>
<line x1="278.5" y1="5" x2="278.5" y2="13" stroke="#111112"/>
<line x1="287.5" y1="5" x2="287.5" y2="13" stroke="#111112"/>
<line x1="296.5" y1="5" x2="296.5" y2="13" stroke="#111112"/>
<line x1="305.5" y1="5" x2="305.5" y2="13" stroke="#111112"/>
<line x1="314.5" y1="5" x2="314.5" y2="13" stroke="#111112"/>
<line x1="323.5" y1="5" x2="323.5" y2="13" stroke="#111112"/>
<line x1="332.5" y1="5" x2="332.5" y2="13" stroke="#111112"/>
<line x1="341.5" y1="5" x2="341.5" y2="21" stroke="#111112"/>
<line x1="350.5" y1="5" x2="350.5" y2="13" stroke="#111112"/>
<line x1="359.5" y1="5" x2="359.5" y2="13" stroke="#111112"/>
<line x1="368.5" y1="5" x2="368.5" y2="13" stroke="#111112"/>
<line x1="377.5" y1="5" x2="377.5" y2="13" stroke="#111112"/>
<line x1="386.5" y1="5" x2="386.5" y2="13" stroke="#111112"/>
<line x1="395.5" y1="5" x2="395.5" y2="13" stroke="#111112"/>
<line x1="404.5" y1="5" x2="404.5" y2="13" stroke="#111112"/>
<line x1="413.5" y1="5" x2="413.5" y2="13" stroke="#111112"/>
<line x1="422.5" y1="5" x2="422.5" y2="13" stroke="#111112"/>
<line x1="431.5" y1="5" x2="431.5" y2="13" stroke="#111112"/>
<line x1="440.5" y1="5" x2="440.5" y2="13" stroke="#111112"/>
<line x1="449.5" y1="5" x2="449.5" y2="13" stroke="#111112"/>
<line x1="458.5" y1="5" x2="458.5" y2="13" stroke="#111112"/>
<line x1="467.5" y1="5" x2="467.5" y2="13" stroke="#111112"/>
<line x1="476.5" y1="5" x2="476.5" y2="13" stroke="#111112"/>
<line x1="485.5" y1="5" x2="485.5" y2="13" stroke="#111112"/>
<line x1="494.5" y1="5" x2="494.5" y2="13" stroke="#111112"/>
<line x1="503.5" y1="5" x2="503.5" y2="13" stroke="#111112"/>
<line x1="512.5" y1="5" x2="512.5" y2="13" stroke="#111112"/>
<line x1="521.5" y1="5" x2="521.5" y2="13" stroke="#111112"/>
<line x1="530.5" y1="5" x2="530.5" y2="21" stroke="#111112"/>
<line x1="539.5" y1="5" x2="539.5" y2="13" stroke="#111112"/>
<line x1="548.5" y1="5" x2="548.5" y2="13" stroke="#111112"/>
<line x1="557.5" y1="5" x2="557.5" y2="13" stroke="#111112"/>
<line x1="566.5" y1="5" x2="566.5" y2="13" stroke="#111112"/>
<line x1="575.5" y1="5" x2="575.5" y2="13" stroke="#111112"/>
<line x1="584.5" y1="5" x2="584.5" y2="13" stroke="#111112"/>
<line x1="593.5" y1="5" x2="593.5" y2="13" stroke="#111112"/>
<line x1="602.5" y1="5" x2="602.5" y2="13" stroke="#111112"/>
<line x1="611.5" y1="5" x2="611.5" y2="13" stroke="#111112"/>
<line x1="620.5" y1="5" x2="620.5" y2="13" stroke="#111112"/>
<line x1="629.5" y1="5" x2="629.5" y2="13" stroke="#111112"/>
<line x1="638.5" y1="5" x2="638.5" y2="13" stroke="#111112"/>
<line x1="647.5" y1="5" x2="647.5" y2="13" stroke="#111112"/>
<line x1="656.5" y1="5" x2="656.5" y2="13" stroke="#111112"/>
<line x1="665.5" y1="5" x2="665.5" y2="13" stroke="#111112"/>
<line x1="674.5" y1="5" x2="674.5" y2="13" stroke="#111112"/>
<line x1="683.5" y1="5" x2="683.5" y2="13" stroke="#111112"/>
<line x1="692.5" y1="5" x2="692.5" y2="13" stroke="#111112"/>
<line x1="701.5" y1="5" x2="701.5" y2="13" stroke="#111112"/>
<line x1="710.5" y1="5" x2="710.5" y2="13" stroke="#111112"/>
<line x1="719.5" y1="5" x2="719.5" y2="21" stroke="#111112"/>
<line x1="728.5" y1="5" x2="728.5" y2="13" stroke="#111112"/>
<line x1="737.5" y1="5" x2="737.5" y2="13" stroke="#111112"/>
<line x1="746.5" y1="5" x2="746.5" y2="13" stroke="#111112"/>
<line x1="755.5" y1="5" x2="755.5" y2="13" stroke="#111112"/>
<line x1="764.5" y1="5" x2="764.5" y2="13" stroke="#111112"/>
<line x1="773.5" y1="5" x2="773.5" y2="13" stroke="#111112"/>
<line x1="782.5" y1="5" x2="782.5" y2="13" stroke="#111112"/>
<line x1="791.5" y1="5" x2="791.5" y2="13" stroke="#111112"/>
<line x1="800.5" y1="5" x2="800.5" y2="13" stroke="#111112"/>
<line x1="809.5" y1="5" x2="809.5" y2="13" stroke="#111112"/>
<line x1="818.5" y1="5" x2="818.5" y2="13" stroke="#111112"/>
<line x1="827.5" y1="5" x2="827.5" y2="13" stroke="#111112"/>
<line x1="836.5" y1="5" x2="836.5" y2="13" stroke="#111112"/>
<line x1="845.5" y1="5" x2="845.5" y2="13" stroke="#111112"/>
<line x1="854.5" y1="5" x2="854.5" y2="13" stroke="#111112"/>
<line x1="863.5" y1="5" x2="863.5" y2="13" stroke="#111112"/>
<line x1="872.5" y1="5" x2="872.5" y2="13" stroke="#111112"/>
<line x1="881.5" y1="5" x2="881.5" y2="13" stroke="#111112"/>
<line x1="890.5" y1="5" x2="890.5" y2="13" stroke="#111112"/>
<line x1="899.5" y1="5" x2="899.5" y2="13" stroke="#111112"/>
<line x1="908.5" y1="5" x2="908.5" y2="21" stroke="#111112"/>
<line x1="917.5" y1="5" x2="917.5" y2="13" stroke="#111112"/>
<line x1="926.5" y1="5" x2="926.5" y2="13" stroke="#111112"/>
<line x1="935.5" y1="5" x2="935.5" y2="13" stroke="#111112"/>
<line x1="944.5" y1="5" x2="944.5" y2="13" stroke="#111112"/>
<line x1="953.5" y1="5" x2="953.5" y2="13" stroke="#111112"/>
<line x1="962.5" y1="5" x2="962.5" y2="13" stroke="#111112"/>
<line x1="971.5" y1="5" x2="971.5" y2="13" stroke="#111112"/>
<line x1="980.5" y1="5" x2="980.5" y2="13" stroke="#111112"/>
<line x1="989.5" y1="5" x2="989.5" y2="13" stroke="#111112"/>
<line x1="998.5" y1="5" x2="998.5" y2="13" stroke="#111112"/>
<line x1="1007.5" y1="5" x2="1007.5" y2="13" stroke="#111112"/>
<line x1="1016.5" y1="5" x2="1016.5" y2="13" stroke="#111112"/>
<line x1="1025.5" y1="5" x2="1025.5" y2="13" stroke="#111112"/>
<line x1="1034.5" y1="5" x2="1034.5" y2="13" stroke="#111112"/>
<line x1="1043.5" y1="5" x2="1043.5" y2="13" stroke="#111112"/>
<line x1="1052.5" y1="5" x2="1052.5" y2="13" stroke="#111112"/>
<line x1="1061.5" y1="5" x2="1061.5" y2="13" stroke="#111112"/>
<line x1="1070.5" y1="5" x2="1070.5" y2="13" stroke="#111112"/>
<line x1="1079.5" y1="5" x2="1079.5" y2="13" stroke="#111112"/>
<line x1="1088.5" y1="5" x2="1088.5" y2="13" stroke="#111112"/>
<line x1="1097.5" y1="5" x2="1097.5" y2="21" stroke="#111112"/>
<line x1="1106.5" y1="5" x2="1106.5" y2="13" stroke="#111112"/>
<line x1="1115.5" y1="5" x2="1115.5" y2="13" stroke="#111112"/>
<line x1="1124.5" y1="5" x2="1124.5" y2="13" stroke="#111112"/>
<line x1="1133.5" y1="5" x2="1133.5" y2="13" stroke="#111112"/>
<line x1="1142.5" y1="5" x2="1142.5" y2="13" stroke="#111112"/>
<line x1="1151.5" y1="5" x2="1151.5" y2="13" stroke="#111112"/>
<line x1="1160.5" y1="5" x2="1160.5" y2="13" stroke="#111112"/>
<line x1="1169.5" y1="5" x2="1169.5" y2="13" stroke="#111112"/>
<line x1="1178.5" y1="5" x2="1178.5" y2="13" stroke="#111112"/>
<line x1="1187.5" y1="5" x2="1187.5" y2="13" stroke="#111112"/>
<line x1="1196.5" y1="5" x2="1196.5" y2="13" stroke="#111112"/>
<line x1="1205.5" y1="5" x2="1205.5" y2="13" stroke="#111112"/>
<line x1="1214.5" y1="5" x2="1214.5" y2="13" stroke="#111112"/>
<line x1="1223.5" y1="5" x2="1223.5" y2="13" stroke="#111112"/>
<line x1="1232.5" y1="5" x2="1232.5" y2="13" stroke="#111112"/>
<line x1="1241.5" y1="5" x2="1241.5" y2="13" stroke="#111112"/>
<line x1="1250.5" y1="5" x2="1250.5" y2="13" stroke="#111112"/>
<line x1="1259.5" y1="5" x2="1259.5" y2="13" stroke="#111112"/>
<line x1="1268.5" y1="5" x2="1268.5" y2="13" stroke="#111112"/>
<line x1="1277.5" y1="5" x2="1277.5" y2="13" stroke="#111112"/>
<line x1="1286.5" y1="5" x2="1286.5" y2="21" stroke="#111112"/>
<line x1="1295.5" y1="5" x2="1295.5" y2="13" stroke="#111112"/>
<line x1="1304.5" y1="5" x2="1304.5" y2="13" stroke="#111112"/>
<line x1="1313.5" y1="5" x2="1313.5" y2="13" stroke="#111112"/>
<line x1="1322.5" y1="5" x2="1322.5" y2="13" stroke="#111112"/>
<line x1="1331.5" y1="5" x2="1331.5" y2="13" stroke="#111112"/>
<line x1="1340.5" y1="5" x2="1340.5" y2="13" stroke="#111112"/>
<line x1="1349.5" y1="5" x2="1349.5" y2="13" stroke="#111112"/>
<line x1="1358.5" y1="5" x2="1358.5" y2="13" stroke="#111112"/>
<line x1="1367.5" y1="5" x2="1367.5" y2="13" stroke="#111112"/>
<line x1="1376.5" y1="5" x2="1376.5" y2="13" stroke="#111112"/>
<line x1="1385.5" y1="5" x2="1385.5" y2="13" stroke="#111112"/>
<line x1="1394.5" y1="5" x2="1394.5" y2="13" stroke="#111112"/>
<line x1="1403.5" y1="5" x2="1403.5" y2="13" stroke="#111112"/>
<line x1="1412.5" y1="5" x2="1412.5" y2="13" stroke="#111112"/>
<line x1="1421.5" y1="5" x2="1421.5" y2="13" stroke="#111112"/>
<line x1="1430.5" y1="5" x2="1430.5" y2="13" stroke="#111112"/>
<line x1="1439.5" y1="5" x2="1439.5" y2="13" stroke="#111112"/>
<line x1="1448.5" y1="5" x2="1448.5" y2="13" stroke="#111112"/>
<line x1="1457.5" y1="5" x2="1457.5" y2="13" stroke="#111112"/>
<line x1="1466.5" y1="5" x2="1466.5" y2="13" stroke="#111112"/>
<line x1="1475.5" y1="5" x2="1475.5" y2="21" stroke="#111112"/>
<line x1="1484.5" y1="5" x2="1484.5" y2="13" stroke="#111112"/>
<line x1="1493.5" y1="5" x2="1493.5" y2="13" stroke="#111112"/>
<line x1="1502.5" y1="5" x2="1502.5" y2="13" stroke="#111112"/>
<line x1="1511.5" y1="5" x2="1511.5" y2="13" stroke="#111112"/>
<line x1="1520.5" y1="5" x2="1520.5" y2="13" stroke="#111112"/>
<line x1="1529.5" y1="5" x2="1529.5" y2="13" stroke="#111112"/>
<line x1="1538.5" y1="5" x2="1538.5" y2="13" stroke="#111112"/>
<line x1="1547.5" y1="5" x2="1547.5" y2="13" stroke="#111112"/>
<line x1="1556.5" y1="5" x2="1556.5" y2="13" stroke="#111112"/>
<line x1="1565.5" y1="5" x2="1565.5" y2="13" stroke="#111112"/>
<line x1="1574.5" y1="5" x2="1574.5" y2="13" stroke="#111112"/>
<line x1="1583.5" y1="5" x2="1583.5" y2="13" stroke="#111112"/>
<line x1="1592.5" y1="5" x2="1592.5" y2="13" stroke="#111112"/>
<line x1="1601.5" y1="5" x2="1601.5" y2="13" stroke="#111112"/>
<line x1="1610.5" y1="5" x2="1610.5" y2="13" stroke="#111112"/>
<line x1="1619.5" y1="5" x2="1619.5" y2="13" stroke="#111112"/>
<line x1="1628.5" y1="5" x2="1628.5" y2="13" stroke="#111112"/>
<line x1="1637.5" y1="5" x2="1637.5" y2="13" stroke="#111112"/>
<line x1="1646.5" y1="5" x2="1646.5" y2="13" stroke="#111112"/>
<line x1="1655.5" y1="5" x2="1655.5" y2="13" stroke="#111112"/>
<line x1="1664.5" y1="5" x2="1664.5" y2="21" stroke="#111112"/>
<line x1="1673.5" y1="5" x2="1673.5" y2="13" stroke="#111112"/>
<line x1="1682.5" y1="5" x2="1682.5" y2="13" stroke="#111112"/>
<line x1="1691.5" y1="5" x2="1691.5" y2="13" stroke="#111112"/>
<line x1="1700.5" y1="5" x2="1700.5" y2="13" stroke="#111112"/>
<line x1="1709.5" y1="5" x2="1709.5" y2="13" stroke="#111112"/>
<line x1="1718.5" y1="5" x2="1718.5" y2="13" stroke="#111112"/>
<line x1="1727.5" y1="5" x2="1727.5" y2="13" stroke="#111112"/>
<line x1="1736.5" y1="5" x2="1736.5" y2="13" stroke="#111112"/>
<line x1="1745.5" y1="5" x2="1745.5" y2="13" stroke="#111112"/>
<line x1="1754.5" y1="5" x2="1754.5" y2="13" stroke="#111112"/>
<line x1="1763.5" y1="5" x2="1763.5" y2="13" stroke="#111112"/>
<line x1="1772.5" y1="5" x2="1772.5" y2="13" stroke="#111112"/>
<line x1="1781.5" y1="5" x2="1781.5" y2="13" stroke="#111112"/>
<line x1="1790.5" y1="5" x2="1790.5" y2="13" stroke="#111112"/>
<line x1="1799.5" y1="5" x2="1799.5" y2="13" stroke="#111112"/>
<line x1="1808.5" y1="5" x2="1808.5" y2="13" stroke="#111112"/>
<line x1="1817.5" y1="5" x2="1817.5" y2="13" stroke="#111112"/>
<line x1="1826.5" y1="5" x2="1826.5" y2="13" stroke="#111112"/>
<line x1="1835.5" y1="5" x2="1835.5" y2="13" stroke="#111112"/>
<line x1="1844.5" y1="5" x2="1844.5" y2="13" stroke="#111112"/>
<line x1="1853.5" y1="5" x2="1853.5" y2="21" stroke="#111112"/>
<line x1="1862.5" y1="5" x2="1862.5" y2="13" stroke="#111112"/>
<line x1="1871.5" y1="5" x2="1871.5" y2="13" stroke="#111112"/>
<line x1="1880.5" y1="5" x2="1880.5" y2="13" stroke="#111112"/>
<line x1="1889.5" y1="5" x2="1889.5" y2="13" stroke="#111112"/>
<line x1="1898.5" y1="5" x2="1898.5" y2="13" stroke="#111112"/>
</g>
<g opacity="0.4">
<path d="M152.018 42.1246C151.491 42.1246 151.04 41.9915 150.662 41.7251C150.287 41.4567 149.999 41.07 149.796 40.565C149.596 40.0579 149.496 39.4474 149.496 38.7337C149.498 38.0199 149.599 37.4126 149.8 36.9119C150.002 36.4091 150.291 36.0256 150.666 35.7614C151.043 35.4972 151.493 35.3651 152.018 35.3651C152.542 35.3651 152.992 35.4972 153.37 35.7614C153.747 36.0256 154.035 36.4091 154.236 36.9119C154.438 37.4148 154.539 38.022 154.539 38.7337C154.539 39.4496 154.438 40.0611 154.236 40.5682C154.035 41.0732 153.747 41.4588 153.37 41.7251C152.995 41.9915 152.544 42.1246 152.018 42.1246ZM152.018 41.1243C152.427 41.1243 152.75 40.9229 152.986 40.5202C153.225 40.1154 153.344 39.5199 153.344 38.7337C153.344 38.2138 153.29 37.777 153.181 37.4233C153.072 37.0696 152.919 36.8033 152.721 36.6243C152.523 36.4432 152.288 36.3526 152.018 36.3526C151.611 36.3526 151.289 36.555 151.052 36.9599C150.816 37.3626 150.697 37.9538 150.694 38.7337C150.692 39.2557 150.745 39.6946 150.851 40.0504C150.96 40.4062 151.113 40.6747 151.311 40.8558C151.509 41.0348 151.745 41.1243 152.018 41.1243ZM157.903 35.4545V42H156.718V36.6083H156.679L155.148 37.5863V36.4996L156.775 35.4545H157.903Z" fill="#111112"/>
<path d="M339.385 42.1246C338.859 42.1246 338.407 41.9915 338.03 41.7251C337.655 41.4567 337.366 41.07 337.164 40.565C336.963 40.0579 336.863 39.4474 336.863 38.7337C336.865 38.0199 336.966 37.4126 337.167 36.9119C337.369 36.4091 337.658 36.0256 338.033 35.7614C338.41 35.4972 338.861 35.3651 339.385 35.3651C339.909 35.3651 340.36 35.4972 340.737 35.7614C341.114 36.0256 341.403 36.4091 341.603 36.9119C341.805 37.4148 341.906 38.022 341.906 38.7337C341.906 39.4496 341.805 40.0611 341.603 40.5682C341.403 41.0732 341.114 41.4588 340.737 41.7251C340.362 41.9915 339.911 42.1246 339.385 42.1246ZM339.385 41.1243C339.794 41.1243 340.117 40.9229 340.353 40.5202C340.592 40.1154 340.711 39.5199 340.711 38.7337C340.711 38.2138 340.657 37.777 340.548 37.4233C340.439 37.0696 340.286 36.8033 340.088 36.6243C339.89 36.4432 339.655 36.3526 339.385 36.3526C338.978 36.3526 338.656 36.555 338.42 36.9599C338.183 37.3626 338.064 37.9538 338.062 38.7337C338.06 39.2557 338.112 39.6946 338.218 40.0504C338.327 40.4062 338.48 40.6747 338.678 40.8558C338.877 41.0348 339.112 41.1243 339.385 41.1243ZM342.608 42V41.1435L344.881 38.9158C345.098 38.6964 345.279 38.5014 345.424 38.331C345.569 38.1605 345.678 37.9954 345.75 37.8356C345.822 37.6758 345.859 37.5053 345.859 37.3242C345.859 37.1175 345.812 36.9407 345.718 36.7937C345.624 36.6445 345.495 36.5295 345.331 36.4485C345.167 36.3675 344.981 36.3271 344.772 36.3271C344.557 36.3271 344.368 36.3718 344.206 36.4613C344.044 36.5487 343.919 36.6733 343.829 36.8352C343.742 36.9972 343.698 37.19 343.698 37.4137H342.57C342.57 36.9982 342.665 36.6371 342.854 36.3303C343.044 36.0234 343.305 35.7859 343.637 35.6175C343.972 35.4492 344.356 35.3651 344.788 35.3651C345.227 35.3651 345.613 35.4471 345.945 35.6112C346.277 35.7752 346.535 36 346.718 36.2855C346.904 36.571 346.996 36.897 346.996 37.2635C346.996 37.5085 346.95 37.7493 346.856 37.9858C346.762 38.2223 346.597 38.4844 346.36 38.772C346.126 39.0597 345.797 39.408 345.373 39.8171L344.245 40.9645V41.0092H347.096V42H342.608Z" fill="#111112"/>
<path d="M528.249 42.1246C527.722 42.1246 527.271 41.9915 526.893 41.7251C526.518 41.4567 526.23 41.07 526.027 40.565C525.827 40.0579 525.727 39.4474 525.727 38.7337C525.729 38.0199 525.83 37.4126 526.031 36.9119C526.233 36.4091 526.522 36.0256 526.897 35.7614C527.274 35.4972 527.724 35.3651 528.249 35.3651C528.773 35.3651 529.223 35.4972 529.6 35.7614C529.978 36.0256 530.266 36.4091 530.467 36.9119C530.669 37.4148 530.77 38.022 530.77 38.7337C530.77 39.4496 530.669 40.0611 530.467 40.5682C530.266 41.0732 529.978 41.4588 529.6 41.7251C529.225 41.9915 528.775 42.1246 528.249 42.1246ZM528.249 41.1243C528.658 41.1243 528.98 40.9229 529.217 40.5202C529.456 40.1154 529.575 39.5199 529.575 38.7337C529.575 38.2138 529.521 37.777 529.412 37.4233C529.303 37.0696 529.15 36.8033 528.952 36.6243C528.754 36.4432 528.519 36.3526 528.249 36.3526C527.842 36.3526 527.52 36.555 527.283 36.9599C527.047 37.3626 526.928 37.9538 526.925 38.7337C526.923 39.2557 526.975 39.6946 527.082 40.0504C527.191 40.4062 527.344 40.6747 527.542 40.8558C527.74 41.0348 527.976 41.1243 528.249 41.1243ZM533.821 42.0895C533.361 42.0895 532.952 42.0107 532.594 41.853C532.238 41.6953 531.957 41.4759 531.75 41.1946C531.543 40.9134 531.434 40.5884 531.421 40.2198H532.623C532.633 40.3967 532.692 40.5511 532.798 40.6832C532.905 40.8132 533.047 40.9144 533.224 40.9869C533.4 41.0593 533.599 41.0955 533.818 41.0955C534.052 41.0955 534.26 41.055 534.441 40.9741C534.622 40.891 534.764 40.7759 534.866 40.6289C534.969 40.4819 535.019 40.3125 535.016 40.1207C535.019 39.9226 534.967 39.7479 534.863 39.5966C534.759 39.4453 534.607 39.3271 534.409 39.2418C534.213 39.1566 533.977 39.114 533.7 39.114H533.121V38.1999H533.7C533.928 38.1999 534.127 38.1605 534.297 38.0817C534.47 38.0028 534.605 37.892 534.703 37.7493C534.801 37.6044 534.849 37.4371 534.847 37.2475C534.849 37.0621 534.808 36.9013 534.722 36.7649C534.639 36.6264 534.521 36.5188 534.368 36.4421C534.216 36.3654 534.039 36.3271 533.834 36.3271C533.634 36.3271 533.448 36.3633 533.278 36.4357C533.107 36.5082 532.97 36.6115 532.866 36.7457C532.761 36.8778 532.706 37.0355 532.699 37.2188H531.558C531.567 36.8523 531.672 36.5305 531.875 36.2536C532.079 35.9744 532.352 35.7571 532.693 35.6016C533.034 35.4439 533.416 35.3651 533.84 35.3651C534.277 35.3651 534.656 35.4471 534.978 35.6112C535.302 35.7731 535.552 35.9915 535.729 36.2663C535.906 36.5412 535.994 36.8448 535.994 37.1772C535.997 37.5458 535.888 37.8548 535.668 38.104C535.451 38.3533 535.166 38.5163 534.812 38.593V38.6442C535.272 38.7081 535.625 38.8786 535.87 39.1555C536.117 39.4304 536.24 39.7724 536.237 40.1815C536.237 40.5479 536.133 40.8761 535.924 41.1658C535.717 41.4535 535.432 41.6793 535.068 41.8434C534.705 42.0075 534.29 42.0895 533.821 42.0895Z" fill="#111112"/>
<path d="M717.183 42.1246C716.656 42.1246 716.205 41.9915 715.828 41.7251C715.453 41.4567 715.164 41.07 714.961 40.565C714.761 40.0579 714.661 39.4474 714.661 38.7337C714.663 38.0199 714.764 37.4126 714.965 36.9119C715.167 36.4091 715.456 36.0256 715.831 35.7614C716.208 35.4972 716.659 35.3651 717.183 35.3651C717.707 35.3651 718.157 35.4972 718.535 35.7614C718.912 36.0256 719.2 36.4091 719.401 36.9119C719.603 37.4148 719.704 38.022 719.704 38.7337C719.704 39.4496 719.603 40.0611 719.401 40.5682C719.2 41.0732 718.912 41.4588 718.535 41.7251C718.16 41.9915 717.709 42.1246 717.183 42.1246ZM717.183 41.1243C717.592 41.1243 717.915 40.9229 718.151 40.5202C718.39 40.1154 718.509 39.5199 718.509 38.7337C718.509 38.2138 718.455 37.777 718.346 37.4233C718.237 37.0696 718.084 36.8033 717.886 36.6243C717.688 36.4432 717.453 36.3526 717.183 36.3526C716.776 36.3526 716.454 36.555 716.217 36.9599C715.981 37.3626 715.862 37.9538 715.859 38.7337C715.857 39.2557 715.91 39.6946 716.016 40.0504C716.125 40.4062 716.278 40.6747 716.476 40.8558C716.674 41.0348 716.91 41.1243 717.183 41.1243ZM720.288 40.7855V39.8427L723.065 35.4545H723.852V36.7969H723.372L721.502 39.7596V39.8107H725.379V40.7855H720.288ZM723.41 42V40.4979L723.423 40.076V35.4545H724.542V42H723.41Z" fill="#111112"/>
<path d="M906.332 42.1246C905.806 42.1246 905.354 41.9915 904.977 41.7251C904.602 41.4567 904.313 41.07 904.111 40.565C903.911 40.0579 903.81 39.4474 903.81 38.7337C903.813 38.0199 903.914 37.4126 904.114 36.9119C904.316 36.4091 904.605 36.0256 904.98 35.7614C905.357 35.4972 905.808 35.3651 906.332 35.3651C906.856 35.3651 907.307 35.4972 907.684 35.7614C908.061 36.0256 908.35 36.4091 908.55 36.9119C908.753 37.4148 908.854 38.022 908.854 38.7337C908.854 39.4496 908.753 40.0611 908.55 40.5682C908.35 41.0732 908.061 41.4588 907.684 41.7251C907.309 41.9915 906.858 42.1246 906.332 42.1246ZM906.332 41.1243C906.741 41.1243 907.064 40.9229 907.3 40.5202C907.539 40.1154 907.658 39.5199 907.658 38.7337C907.658 38.2138 907.604 37.777 907.495 37.4233C907.387 37.0696 907.233 36.8033 907.035 36.6243C906.837 36.4432 906.603 36.3526 906.332 36.3526C905.925 36.3526 905.603 36.555 905.367 36.9599C905.13 37.3626 905.011 37.9538 905.009 38.7337C905.007 39.2557 905.059 39.6946 905.166 40.0504C905.274 40.4062 905.428 40.6747 905.626 40.8558C905.824 41.0348 906.059 41.1243 906.332 41.1243ZM911.831 42.0895C911.405 42.0895 911.024 42.0096 910.687 41.8498C910.35 41.6879 910.083 41.4663 909.885 41.185C909.689 40.9038 909.584 40.582 909.572 40.2198H910.722C910.743 40.4883 910.86 40.7077 911.071 40.8782C911.281 41.0465 911.535 41.1307 911.831 41.1307C912.063 41.1307 912.27 41.0774 912.451 40.9709C912.632 40.8643 912.775 40.7163 912.879 40.5266C912.984 40.337 913.035 40.1207 913.033 39.8778C913.035 39.6307 912.983 39.4112 912.876 39.2195C912.77 39.0277 912.624 38.8775 912.438 38.7688C912.253 38.658 912.04 38.6026 911.799 38.6026C911.603 38.6005 911.41 38.6367 911.221 38.7113C911.031 38.7859 910.881 38.8839 910.77 39.0053L909.699 38.8295L910.041 35.4545H913.838V36.4453H911.023L910.834 38.1808H910.872C910.994 38.038 911.165 37.9197 911.387 37.826C911.609 37.7301 911.851 37.6822 912.116 37.6822C912.512 37.6822 912.866 37.7759 913.177 37.9634C913.488 38.1488 913.733 38.4045 913.912 38.7305C914.091 39.0565 914.18 39.4293 914.18 39.8491C914.18 40.2816 914.08 40.6673 913.88 41.006C913.682 41.3427 913.406 41.608 913.052 41.8018C912.7 41.9936 912.294 42.0895 911.831 42.0895Z" fill="#111112"/>
<path d="M1095.26 42.1246C1094.74 42.1246 1094.28 41.9915 1093.91 41.7251C1093.53 41.4567 1093.24 41.07 1093.04 40.565C1092.84 40.0579 1092.74 39.4474 1092.74 38.7337C1092.74 38.0199 1092.84 37.4126 1093.04 36.9119C1093.25 36.4091 1093.53 36.0256 1093.91 35.7614C1094.29 35.4972 1094.74 35.3651 1095.26 35.3651C1095.79 35.3651 1096.24 35.4972 1096.61 35.7614C1096.99 36.0256 1097.28 36.4091 1097.48 36.9119C1097.68 37.4148 1097.78 38.022 1097.78 38.7337C1097.78 39.4496 1097.68 40.0611 1097.48 40.5682C1097.28 41.0732 1096.99 41.4588 1096.61 41.7251C1096.24 41.9915 1095.79 42.1246 1095.26 42.1246ZM1095.26 41.1243C1095.67 41.1243 1095.99 40.9229 1096.23 40.5202C1096.47 40.1154 1096.59 39.5199 1096.59 38.7337C1096.59 38.2138 1096.53 37.777 1096.43 37.4233C1096.32 37.0696 1096.16 36.8033 1095.96 36.6243C1095.77 36.4432 1095.53 36.3526 1095.26 36.3526C1094.85 36.3526 1094.53 36.555 1094.3 36.9599C1094.06 37.3626 1093.94 37.9538 1093.94 38.7337C1093.94 39.2557 1093.99 39.6946 1094.1 40.0504C1094.2 40.4062 1094.36 40.6747 1094.56 40.8558C1094.75 41.0348 1094.99 41.1243 1095.26 41.1243ZM1100.88 42.0895C1100.57 42.0874 1100.26 42.033 1099.97 41.9265C1099.67 41.8178 1099.4 41.642 1099.16 41.3991C1098.92 41.1541 1098.73 40.8292 1098.59 40.4244C1098.45 40.0174 1098.38 39.5135 1098.38 38.9126C1098.38 38.3523 1098.44 37.8526 1098.56 37.4137C1098.68 36.9748 1098.85 36.604 1099.08 36.3015C1099.3 35.9968 1099.57 35.7646 1099.89 35.6048C1100.2 35.445 1100.56 35.3651 1100.95 35.3651C1101.36 35.3651 1101.72 35.446 1102.04 35.608C1102.36 35.7699 1102.62 35.9915 1102.82 36.2727C1103.01 36.5518 1103.13 36.8672 1103.18 37.2188H1102.01C1101.95 36.9673 1101.83 36.767 1101.65 36.6179C1101.46 36.4666 1101.23 36.391 1100.95 36.391C1100.5 36.391 1100.15 36.5881 1099.9 36.9822C1099.66 37.3764 1099.54 37.9176 1099.53 38.6058H1099.58C1099.68 38.4183 1099.82 38.2575 1099.98 38.1232C1100.15 37.989 1100.34 37.8857 1100.55 37.8132C1100.76 37.7386 1100.98 37.7013 1101.21 37.7013C1101.6 37.7013 1101.94 37.793 1102.25 37.9762C1102.55 38.1594 1102.8 38.4119 1102.98 38.7337C1103.15 39.0533 1103.24 39.4197 1103.24 39.8331C1103.24 40.2635 1103.15 40.6502 1102.95 40.9933C1102.75 41.3342 1102.47 41.6026 1102.12 41.7987C1101.77 41.9947 1101.35 42.0916 1100.88 42.0895ZM1100.88 41.1307C1101.11 41.1307 1101.32 41.0742 1101.5 40.9613C1101.68 40.8484 1101.83 40.696 1101.93 40.5043C1102.04 40.3125 1102.09 40.0973 1102.09 39.8587C1102.09 39.6243 1102.04 39.4123 1101.94 39.2227C1101.83 39.033 1101.69 38.8828 1101.51 38.772C1101.33 38.6612 1101.12 38.6058 1100.89 38.6058C1100.72 38.6058 1100.56 38.6388 1100.41 38.7049C1100.26 38.771 1100.13 38.8626 1100.02 38.9798C1099.91 39.0948 1099.82 39.229 1099.76 39.3825C1099.7 39.5337 1099.66 39.6957 1099.66 39.8683C1099.66 40.0962 1099.72 40.3061 1099.82 40.4979C1099.93 40.6896 1100.07 40.843 1100.25 40.9581C1100.44 41.0732 1100.64 41.1307 1100.88 41.1307Z" fill="#111112"/>
<path d="M1284.13 42.1246C1283.6 42.1246 1283.15 41.9915 1282.77 41.7251C1282.4 41.4567 1282.11 41.07 1281.91 40.565C1281.7 40.0579 1281.6 39.4474 1281.6 38.7337C1281.61 38.0199 1281.71 37.4126 1281.91 36.9119C1282.11 36.4091 1282.4 36.0256 1282.77 35.7614C1283.15 35.4972 1283.6 35.3651 1284.13 35.3651C1284.65 35.3651 1285.1 35.4972 1285.48 35.7614C1285.86 36.0256 1286.14 36.4091 1286.34 36.9119C1286.55 37.4148 1286.65 38.022 1286.65 38.7337C1286.65 39.4496 1286.55 40.0611 1286.34 40.5682C1286.14 41.0732 1285.86 41.4588 1285.48 41.7251C1285.1 41.9915 1284.65 42.1246 1284.13 42.1246ZM1284.13 41.1243C1284.54 41.1243 1284.86 40.9229 1285.09 40.5202C1285.33 40.1154 1285.45 39.5199 1285.45 38.7337C1285.45 38.2138 1285.4 37.777 1285.29 37.4233C1285.18 37.0696 1285.03 36.8033 1284.83 36.6243C1284.63 36.4432 1284.4 36.3526 1284.13 36.3526C1283.72 36.3526 1283.4 36.555 1283.16 36.9599C1282.92 37.3626 1282.81 37.9538 1282.8 38.7337C1282.8 39.2557 1282.85 39.6946 1282.96 40.0504C1283.07 40.4062 1283.22 40.6747 1283.42 40.8558C1283.62 41.0348 1283.85 41.1243 1284.13 41.1243ZM1287.41 42L1290.2 36.4901V36.4453H1286.97V35.4545H1291.42V36.4677L1288.64 42H1287.41Z" fill="#111112"/>
<path d="M1472.27 42.1246C1471.75 42.1246 1471.3 41.9915 1470.92 41.7251C1470.54 41.4567 1470.26 41.07 1470.05 40.565C1469.85 40.0579 1469.75 39.4474 1469.75 38.7337C1469.76 38.0199 1469.86 37.4126 1470.06 36.9119C1470.26 36.4091 1470.55 36.0256 1470.92 35.7614C1471.3 35.4972 1471.75 35.3651 1472.27 35.3651C1472.8 35.3651 1473.25 35.4972 1473.63 35.7614C1474 36.0256 1474.29 36.4091 1474.49 36.9119C1474.7 37.4148 1474.8 38.022 1474.8 38.7337C1474.8 39.4496 1474.7 40.0611 1474.49 40.5682C1474.29 41.0732 1474 41.4588 1473.63 41.7251C1473.25 41.9915 1472.8 42.1246 1472.27 42.1246ZM1472.27 41.1243C1472.68 41.1243 1473.01 40.9229 1473.24 40.5202C1473.48 40.1154 1473.6 39.5199 1473.6 38.7337C1473.6 38.2138 1473.55 37.777 1473.44 37.4233C1473.33 37.0696 1473.18 36.8033 1472.98 36.6243C1472.78 36.4432 1472.55 36.3526 1472.27 36.3526C1471.87 36.3526 1471.55 36.555 1471.31 36.9599C1471.07 37.3626 1470.95 37.9538 1470.95 38.7337C1470.95 39.2557 1471 39.6946 1471.11 40.0504C1471.22 40.4062 1471.37 40.6747 1471.57 40.8558C1471.77 41.0348 1472 41.1243 1472.27 41.1243ZM1477.83 42.0895C1477.35 42.0895 1476.93 42.0096 1476.56 41.8498C1476.19 41.69 1475.91 41.4716 1475.7 41.1946C1475.49 40.9155 1475.39 40.5991 1475.39 40.2454C1475.39 39.9705 1475.45 39.718 1475.57 39.4879C1475.69 39.2578 1475.85 39.0661 1476.06 38.9126C1476.27 38.7571 1476.5 38.658 1476.76 38.6154V38.5707C1476.42 38.4961 1476.15 38.3246 1475.94 38.0561C1475.73 37.7855 1475.63 37.4734 1475.63 37.1197C1475.63 36.783 1475.72 36.4826 1475.91 36.2184C1476.1 35.9542 1476.36 35.7464 1476.69 35.5952C1477.02 35.4418 1477.4 35.3651 1477.83 35.3651C1478.24 35.3651 1478.62 35.4418 1478.95 35.5952C1479.28 35.7464 1479.54 35.9542 1479.73 36.2184C1479.92 36.4826 1480.01 36.783 1480.01 37.1197C1480.01 37.4734 1479.91 37.7855 1479.7 38.0561C1479.49 38.3246 1479.22 38.4961 1478.89 38.5707V38.6154C1479.15 38.658 1479.38 38.7571 1479.58 38.9126C1479.79 39.0661 1479.95 39.2578 1480.07 39.4879C1480.2 39.718 1480.26 39.9705 1480.26 40.2454C1480.26 40.5991 1480.15 40.9155 1479.94 41.1946C1479.74 41.4716 1479.45 41.69 1479.08 41.8498C1478.72 42.0096 1478.3 42.0895 1477.83 42.0895ZM1477.83 41.1754C1478.07 41.1754 1478.28 41.1339 1478.46 41.0508C1478.65 40.9656 1478.79 40.8462 1478.89 40.6928C1478.99 40.5394 1479.04 40.3626 1479.04 40.1623C1479.04 39.9535 1478.98 39.7692 1478.88 39.6094C1478.77 39.4474 1478.63 39.3207 1478.45 39.229C1478.26 39.1374 1478.06 39.0916 1477.83 39.0916C1477.59 39.0916 1477.38 39.1374 1477.2 39.229C1477.02 39.3207 1476.87 39.4474 1476.76 39.6094C1476.66 39.7692 1476.61 39.9535 1476.61 40.1623C1476.61 40.3626 1476.66 40.5394 1476.76 40.6928C1476.86 40.8441 1477 40.9624 1477.18 41.0476C1477.36 41.1328 1477.58 41.1754 1477.83 41.1754ZM1477.83 38.1935C1478.03 38.1935 1478.2 38.1531 1478.36 38.0721C1478.51 37.9911 1478.63 37.8782 1478.72 37.7333C1478.81 37.5884 1478.86 37.4212 1478.86 37.2315C1478.86 37.044 1478.81 36.88 1478.73 36.7393C1478.64 36.5966 1478.52 36.4869 1478.36 36.4102C1478.21 36.3313 1478.03 36.2919 1477.83 36.2919C1477.62 36.2919 1477.44 36.3313 1477.28 36.4102C1477.12 36.4869 1477 36.5966 1476.91 36.7393C1476.83 36.88 1476.79 37.044 1476.79 37.2315C1476.79 37.4212 1476.83 37.5884 1476.92 37.7333C1477.01 37.8761 1477.13 37.989 1477.29 38.0721C1477.44 38.1531 1477.62 38.1935 1477.83 38.1935Z" fill="#111112"/>
<path d="M1661.26 42.1246C1660.74 42.1246 1660.28 41.9915 1659.91 41.7251C1659.53 41.4567 1659.24 41.07 1659.04 40.565C1658.84 40.0579 1658.74 39.4474 1658.74 38.7337C1658.74 38.0199 1658.84 37.4126 1659.04 36.9119C1659.25 36.4091 1659.53 36.0256 1659.91 35.7614C1660.29 35.4972 1660.74 35.3651 1661.26 35.3651C1661.79 35.3651 1662.24 35.4972 1662.61 35.7614C1662.99 36.0256 1663.28 36.4091 1663.48 36.9119C1663.68 37.4148 1663.78 38.022 1663.78 38.7337C1663.78 39.4496 1663.68 40.0611 1663.48 40.5682C1663.28 41.0732 1662.99 41.4588 1662.61 41.7251C1662.24 41.9915 1661.79 42.1246 1661.26 42.1246ZM1661.26 41.1243C1661.67 41.1243 1661.99 40.9229 1662.23 40.5202C1662.47 40.1154 1662.59 39.5199 1662.59 38.7337C1662.59 38.2138 1662.53 37.777 1662.43 37.4233C1662.32 37.0696 1662.16 36.8033 1661.96 36.6243C1661.77 36.4432 1661.53 36.3526 1661.26 36.3526C1660.85 36.3526 1660.53 36.555 1660.3 36.9599C1660.06 37.3626 1659.94 37.9538 1659.94 38.7337C1659.94 39.2557 1659.99 39.6946 1660.1 40.0504C1660.2 40.4062 1660.36 40.6747 1660.56 40.8558C1660.75 41.0348 1660.99 41.1243 1661.26 41.1243ZM1666.76 35.3651C1667.07 35.3672 1667.38 35.4226 1667.67 35.5312C1667.97 35.6378 1668.24 35.8125 1668.48 36.0554C1668.72 36.2962 1668.91 36.619 1669.05 37.0238C1669.19 37.4286 1669.26 37.9293 1669.26 38.5259C1669.26 39.0884 1669.2 39.5913 1669.08 40.0344C1668.96 40.4755 1668.79 40.8484 1668.56 41.1531C1668.34 41.4577 1668.07 41.69 1667.75 41.8498C1667.44 42.0096 1667.08 42.0895 1666.69 42.0895C1666.28 42.0895 1665.91 42.0085 1665.59 41.8466C1665.27 41.6847 1665.02 41.4631 1664.82 41.1818C1664.62 40.9006 1664.5 40.5788 1664.46 40.2166H1665.63C1665.69 40.4766 1665.81 40.6832 1665.99 40.8366C1666.18 40.9879 1666.41 41.0636 1666.69 41.0636C1667.14 41.0636 1667.49 40.8665 1667.74 40.4723C1667.98 40.0781 1668.11 39.5305 1668.11 38.8295H1668.06C1667.96 39.017 1667.82 39.179 1667.66 39.3153C1667.49 39.4496 1667.3 39.5529 1667.09 39.6254C1666.88 39.6978 1666.66 39.734 1666.43 39.734C1666.04 39.734 1665.7 39.6424 1665.39 39.4592C1665.09 39.2759 1664.84 39.0245 1664.66 38.7049C1664.49 38.3853 1664.4 38.0199 1664.4 37.6087C1664.4 37.1825 1664.49 36.8001 1664.69 36.4613C1664.89 36.1204 1665.16 35.8519 1665.52 35.6559C1665.87 35.4577 1666.28 35.3608 1666.76 35.3651ZM1666.76 36.3239C1666.53 36.3239 1666.32 36.3803 1666.14 36.4933C1665.95 36.604 1665.81 36.7553 1665.7 36.9471C1665.6 37.1367 1665.55 37.3487 1665.55 37.5831C1665.55 37.8153 1665.6 38.0263 1665.7 38.2159C1665.81 38.4055 1665.95 38.5558 1666.13 38.6665C1666.31 38.7773 1666.52 38.8327 1666.75 38.8327C1666.92 38.8327 1667.08 38.7997 1667.23 38.7337C1667.38 38.6676 1667.51 38.576 1667.62 38.4588C1667.73 38.3395 1667.82 38.2042 1667.88 38.0529C1667.95 37.9016 1667.98 37.7418 1667.98 37.5735C1667.98 37.3498 1667.92 37.1431 1667.82 36.9535C1667.71 36.7638 1667.57 36.6115 1667.38 36.4964C1667.2 36.3814 1667 36.3239 1666.76 36.3239Z" fill="#111112"/>
<path d="M1850.26 35.4545V42H1849.07V36.6083H1849.04L1847.51 37.5863V36.4996L1849.13 35.4545H1850.26ZM1853.98 42.1246C1853.46 42.1246 1853 41.9915 1852.63 41.7251C1852.25 41.4567 1851.96 41.07 1851.76 40.565C1851.56 40.0579 1851.46 39.4474 1851.46 38.7337C1851.46 38.0199 1851.56 37.4126 1851.76 36.9119C1851.97 36.4091 1852.25 36.0256 1852.63 35.7614C1853.01 35.4972 1853.46 35.3651 1853.98 35.3651C1854.51 35.3651 1854.96 35.4972 1855.33 35.7614C1855.71 36.0256 1856 36.4091 1856.2 36.9119C1856.4 37.4148 1856.5 38.022 1856.5 38.7337C1856.5 39.4496 1856.4 40.0611 1856.2 40.5682C1856 41.0732 1855.71 41.4588 1855.33 41.7251C1854.96 41.9915 1854.51 42.1246 1853.98 42.1246ZM1853.98 41.1243C1854.39 41.1243 1854.71 40.9229 1854.95 40.5202C1855.19 40.1154 1855.31 39.5199 1855.31 38.7337C1855.31 38.2138 1855.25 37.777 1855.15 37.4233C1855.04 37.0696 1854.88 36.8033 1854.68 36.6243C1854.49 36.4432 1854.25 36.3526 1853.98 36.3526C1853.57 36.3526 1853.25 36.555 1853.02 36.9599C1852.78 37.3626 1852.66 37.9538 1852.66 38.7337C1852.66 39.2557 1852.71 39.6946 1852.82 40.0504C1852.92 40.4062 1853.08 40.6747 1853.28 40.8558C1853.47 41.0348 1853.71 41.1243 1853.98 41.1243Z" fill="#111112"/>
</g>
</g>
<defs>
<linearGradient id="paint0_linear_2033_360" x1="0" y1="21.5" x2="1900" y2="21.5" gradientUnits="userSpaceOnUse">
<stop stop-opacity="0"/>
<stop offset="0.255" stop-color="#464646"/>
<stop offset="0.495" stop-color="white"/>
<stop offset="0.715" stop-color="#373737"/>
<stop offset="1" stop-opacity="0"/>
</linearGradient>
</defs>
</svg>
